{
  "accessors": [
    {
      "bufferView": 1,
      "componentType": 5126,
      "count": 4477,
      "max": [
        1.6889959573745728,
        1.0438040494918823,
        2.7095799446105957
      ],
      "min": [
        -1.8604199886322021,
        -1.0419299602508545,
        -0.16735400259494781
      ],
      "type": "VEC3"
    },
    {
      "bufferView": 1,
      "byteOffset": 53724,
      "componentType": 5126,
      "count": 4477,
      "max": [
        1.0,
        1.0,
        1.0
      ],
      "min": [
        -1.0,
        -1.0,
        -1.0
      ],
      "type": "VEC3"
    },
    {
      "bufferView": 0,
      "componentType": 5125,
      "count": 13749,
      "type": "SCALAR"
    },
    {
      "bufferView": 1,
      "byteOffset": 107448,
      "componentType": 5126,
      "count": 1877,
      "max": [
        1.4938989877700806,
        0.8694829940795898,
        1.610916018486023
      ],
      "min": [
        -1.5648950338363647,
        -0.8040969967842102,
        -0.014057000167667866
      ],
      "type": "VEC3"
    },
    {
      "bufferView": 1,
      "byteOffset": 129972,
      "componentType": 5126,
      "count": 1877,
      "max": [
        1.0,
        1.0,
        1.0
      ],
      "min": [
        -1.0,
        -1.0,
        -1.0
      ],
      "type": "VEC3"
    },
    {
      "bufferView": 0,
      "byteOffset": 54996,
      "componentType": 5125,
      "count": 6066,
      "type": "SCALAR"
    }
  ],
  "asset": {
    "extras": {
      "author": "stek (https://sketchfab.com/stek)",
      "license": "CC-BY-4.0 (http://creativecommons.org/licenses/by/4.0/)",
      "source": "https://sketchfab.com/3d-models/tugboat-a8a0c64472e041db91ab90b84e372f29",
      "title": "Tugboat"
    },
    "generator": "Sketchfab-12.67.0",
    "version": "2.0"
  },
  "bufferViews": [
    {
      "buffer": 0,
      "byteLength": 79260,
      "name": "floatBufferViews",
      "target": 34963
    },
    {
      "buffer": 0,
      "byteLength": 152496,
      "byteOffset": 79260,
      "byteStride": 12,
      "name": "floatBufferViews",
      "target": 34962
    }
  ],
  "buffers": [
    {
      "byteLength": 231756,
      "uri": "scene.bin"
    }
  ],
  "materials": [
    {
      "doubleSided": true,
      "name": "material_0",
      "pbrMetallicRoughness": {
        "baseColorFactor": [
          0.855605185835103,
          0.855605185835103,
          0.855605185835103,
          1.0
        ],
        "metallicFactor": 0.09927591463414634,
        "roughnessFactor": 0.42854420731707316
      }
    }
  ],
  "meshes": [
    {
      "name": "Object_0",
      "primitives": [
        {
          "attributes": {
            "NORMAL": 1,
            "POSITION": 0
          },
          "indices": 2,
          "material": 0,
          "mode": 4
        }
      ]
    },
    {
      "name": "Object_1",
      "primitives": [
        {
          "attributes": {
            "NORMAL": 4,
            "POSITION": 3
          },
          "indices": 5,
          "material": 0,
          "mode": 4
        }
      ]
    }
  ],
  "nodes": [
    {
      "children": [
        1
      ],
      "matrix": [
        1.0,
        0.0,
        0.0,
        0.0,
        0.0,
        2.220446049250313e-16,
        -1.0,
        0.0,
        0.0,
        1.0,
        2.220446049250313e-16,
        0.0,
        0.0,
        0.0,
        0.0,
        1.0
      ],
      "name": "Sketchfab_model"
    },
    {
      "children": [
        2,
        3
      ],
      "name": "90776c2b0f2e4e37954068990845337b.obj.cleaner.materialmerger.gles"
    },
    {
      "mesh": 0,
      "name": "Object_2"
    },
    {
      "mesh": 1,
      "name": "Object_3"
    }
  ],
  "scene": 0,
  "scenes": [
    {
      "name": "Sketchfab_Scene",
      "nodes": [
        0
      ]
    }
  ]
}
